<svg id="Layer_1" data-name="Layer 1" xmlns="http://www.w3.org/2000/svg" viewBox="0 0 390 95.54" width="390" height="95.54"><defs><style>.cls-2{fill:#ec1c24}</style></defs><path d="M0 23.24h18.6a29.67 29.67 0 0112.7 2.4 21.57 21.57 0 018.1 6.3A23.76 23.76 0 0143.6 41a45.69 45.69 0 011.2 10.5 41.13 41.13 0 01-1.6 11.3 24.32 24.32 0 01-4.8 9 21.92 21.92 0 01-8.3 6A28.25 28.25 0 0118.3 80H0V23.24zm18.7 53.7a27.72 27.72 0 008-1.2 18.5 18.5 0 007.2-4.1 20.67 20.67 0 005.3-7.8c1.4-3.3 2-7.3 2-12.3a35.26 35.26 0 00-1.2-9.9 22.42 22.42 0 00-3-7 16.89 16.89 0 00-4.3-4.5 23.36 23.36 0 00-5-2.5 25 25 0 00-5.1-1.2c-1.8-.1-3.3-.2-4.7-.2H3.5v50.7zM52 31.44v-8.2h3v8.2zM52 80V39.14h3v40.8L52 80zm38.5-8.2h-.2a14.15 14.15 0 01-2.1 3.5 15.59 15.59 0 01-3.3 2.9 19.67 19.67 0 01-4.4 2 19 19 0 01-5.4.7c-4.3 0-7.7-.9-10.1-2.8s-3.6-4.8-3.6-8.7a10.77 10.77 0 011.5-5.9 11.25 11.25 0 013.6-3.6 13.08 13.08 0 014.9-1.8 48.8 48.8 0 015.1-.8l4.7-.4a36.86 36.86 0 005.1-.7 5.7 5.7 0 002.8-1.5 4.56 4.56 0 001.2-2.4 17.25 17.25 0 00.3-3.6 8.15 8.15 0 00-.6-3.1 9.55 9.55 0 00-2-2.6 10.39 10.39 0 00-3.5-1.7 16.53 16.53 0 00-5.2-.6 13.89 13.89 0 00-8.9 2.7c-2.3 1.8-3.5 4.5-3.7 8.2h-3c.2-4.5 1.7-7.9 4.3-10.1s6.5-3.4 11.4-3.4 8.5 1 10.7 2.9a9.41 9.41 0 013.4 7.6V74a4.15 4.15 0 00.3 1.6 5 5 0 00.8 1.2 2.54 2.54 0 001.6.5 10.33 10.33 0 002.2-.3v2.6a10.68 10.68 0 01-2.5.3 7.56 7.56 0 01-2.9-.5 3.71 3.71 0 01-1.7-1.3 4.49 4.49 0 01-.7-1.8 16.59 16.59 0 01-.2-2.4l.1-2.1zm0-15a5.32 5.32 0 01-3.4 1.8 35.44 35.44 0 01-5 .7l-5 .5c-1.5.2-2.9.4-4.5.6a12.76 12.76 0 00-4 1.5 8.65 8.65 0 00-2.9 2.8 9.33 9.33 0 00-1.1 4.7c0 3 .9 5.2 2.8 6.7s4.5 2.2 7.9 2.2a16.08 16.08 0 008.2-1.8 14.76 14.76 0 004.6-4.3 13.27 13.27 0 002-4.7 24.72 24.72 0 00.5-3l-.1-7.7zm14.3-33.6v56.7h-3V23.24zm35.2 0h3.7l10.5 56.7h-3.5l-3.3-18.2H120l-11 18.2h-3.9L140 23.24zm-18.2 35.5h25l-5.7-32c.1.04-19.3 32.04-19.3 32.04zm33.8-35.5h35.6v3h-32.1v22.7h28.8v3H159v28h-3.5l.1-56.7zm40.8 0v56.7h-3V23.24zm7.1 8.2v-8.2h3v8.2zm0 48.6V39.14h3v40.8l-3 .1zm43.2-40.9v38.7a28.4 28.4 0 01-.8 6.6 15.2 15.2 0 01-2.8 5.7 13.34 13.34 0 01-5.3 3.9 21.39 21.39 0 01-8.6 1.5 29.35 29.35 0 01-6.1-.6 15.08 15.08 0 01-5-2.1 11 11 0 01-3.5-3.9 15.12 15.12 0 01-1.5-6h3a10.82 10.82 0 001.4 4.6 9.6 9.6 0 002.9 3.1 11.8 11.8 0 004 1.7 22.45 22.45 0 004.8.6 18.75 18.75 0 007.1-1.3 11 11 0 004.5-3.3 13.5 13.5 0 002.4-4.6 18.48 18.48 0 00.6-5.2v-9.3h-.3a16.75 16.75 0 01-5.9 6.9 16 16 0 01-8.9 2.4 18.69 18.69 0 01-7.8-1.6 16.07 16.07 0 01-8.7-10.7 28.65 28.65 0 01-1.1-8 24.8 24.8 0 011.2-7.7 17.22 17.22 0 0125.5-10 13.54 13.54 0 015.9 7h.2V39l2.8.1zm-17.9 1.6a13.28 13.28 0 00-6.5 1.5 14.12 14.12 0 00-4.5 3.9 18.17 18.17 0 00-2.7 5.6 23 23 0 00-.9 6.4 24.84 24.84 0 00.9 6.8 17.32 17.32 0 002.8 5.6 15.34 15.34 0 004.6 3.8 13.92 13.92 0 006.3 1.4 13.28 13.28 0 006.5-1.5 14.65 14.65 0 004.7-3.9 16.38 16.38 0 002.8-5.6 24.65 24.65 0 000-13.2 18.39 18.39 0 00-2.8-5.6 13.66 13.66 0 00-4.7-3.9 18.32 18.32 0 00-6.5-1.3zm28.5-17.5v24.7h.2a13.62 13.62 0 012.3-4.1 13.84 13.84 0 013.4-3 17.53 17.53 0 014.2-1.9 15.18 15.18 0 014.7-.6 18.25 18.25 0 016.1.9 13.33 13.33 0 014.1 2.3 9.61 9.61 0 012.5 3.2 17.35 17.35 0 011.3 3.6 14.87 14.87 0 01.5 3.6c.1 1.1.1 2.1.1 2.9v25.3h-2.9v-26a32.82 32.82 0 00-.3-3.9 11.36 11.36 0 00-1.4-4.4 9.24 9.24 0 00-3.5-3.6 12.26 12.26 0 00-6.5-1.5 15.25 15.25 0 00-6.2 1.3 12.3 12.3 0 00-4.6 3.6 15.55 15.55 0 00-2.9 5.4 25 25 0 00-1 6.9V80h-2.9V23.24zm51 18.5h-8.9v28.5a10.29 10.29 0 00.6 3.9 4.7 4.7 0 001.7 2.2 5.8 5.8 0 002.8.9c1.1.1 2.4.1 3.8.1V80a33.78 33.78 0 01-4.5 0 9.41 9.41 0 01-3.9-1.2 7.58 7.58 0 01-2.7-2.9c-.7-1.2-.9-3.1-.8-5.5V41.74h-7.5V39h7.5V26.44h3v12.8h8.9v2.5z" fill="#fff"/><path class="cls-2" d="M370.5 16.34c1.6-1.6 4.2-5 8-5.8.3.3 0 1.3-.2 1.7-.5 0-.6-.5-.9-.6-3.2 1-4.9 3-6.9 4.7zm19.3-6.6c.2 0 .2.3.2.5a19.39 19.39 0 01-6.1 5.6c-.7 1.2-1.4 2.5-3.2 2.8.5.8-.7 2-2.1 2.2 0 1.4-1.3 1.7-2.6 2.1a2.1 2.1 0 01-1.4 1.5c-.7.1.2-.4.1-.6a14 14 0 011.5-3.3c.5-1 .8-2.3 1.7-3 .4-.4 1.2-.5 1.7-.8 3.3-2.1 7-4.7 10.2-7zm-23 3.7a44.67 44.67 0 019.4-10.1 7.89 7.89 0 013.7-1.7 4.15 4.15 0 01-.3 2.5c-.3-.2-.3-.7-.7-.7-5.9 1.5-9.3 7.2-12.1 10z"/><path class="cls-2" d="M367.4 14.74c3.6-3.8 6.5-8.8 12.4-10.2.4.9-.1 1.8-.4 2.7-.4 0-.1-.9-.5-.9-5.7.8-7.9 5-10.9 8.3.1-.2-.4.7-.6.1zm7.8 5c.3.8-.6 2.1-1.2 2.8a1 1 0 00-.3-.8 6 6 0 00-3.6.7 12.82 12.82 0 015.1-2.7zm-4.7-.1c.9-.8 3.8-3.7 6.5-3.9.1 1.5-.8 2-1.2 3.1-.5-.1.2-.6-.1-1-1.9-1-3.9 1.2-5.2 1.8zm6.3-5.4c-3.1.5-4.4 2.4-6.4 3.8a29.21 29.21 0 013.9-3.6c1.1-.8 1.9-1.9 3.7-1.7.3 1.1-.4 1.5-.6 2.2-.2 0-.1-.7-.6-.7z"/><path class="cls-2" d="M362.8 51.74c1-2 2.3-4.3 2.1-6.5-.2 0-.3-.2-.6-.1a61.31 61.31 0 01-5.7 10.4c.1.6 0 1.5.4 1.8 1.8-1.4 2.8-3.6 3.8-5.6zm-.3 5.3a36.2 36.2 0 003.7-10c-.1-.2-.2-.3-.4-.3-1.4 3.2-2.9 6.6-4.5 9.5-.5.8-1.5 1.9-.8 2.9 1.2.1 1.5-1.4 2-2.14zm-4.7-3.4c.9.2 1.2-1.4 2.1-1.7 1.3-2.7 4-4.8 3.5-8.4-3.5.4-4.8 2.5-4.3 6.1 0 .7-1.4 1.3-1.7 2.1 0 .4-.2 1.4.4 1.9zm1.4-19.4c-.4 3.4.3 7.5-2 9.8-3.4-1.7-4.2-5.9-7.5-7.5-1-.5-2.2-.6-3.2-1a14.63 14.63 0 01-4.8-3.1c-6.2-.1-13.7 3.2-19.3 4.8a88.45 88.45 0 019.7-4.1c2.4-.9 5.1-1.4 7.1-2.7 2.5-1.7 3.7-6.1 8.3-6.1 2.4 0 5.3 3.2 7.4 2.8 1.1-.3 1.9-2.2 2.7-3.6a84.2 84.2 0 017.2-11.4 37.18 37.18 0 0111-11c1.5-.9 3-2.3 3.2.6-2.3-.7-5.1 1.6-7 3.2a32.6 32.6 0 00-3.1 3.3 59 59 0 00-6.5 9c-1.9 3.1-4.5 7.9-2 12.7a19.5 19.5 0 003 3.7c.8.8 1.1 1.8 2.7 1.6.6-.2.2-1.3 0-1.7.1-.6 1 .7 2.1.1a3.29 3.29 0 00-1.6-2.3c.6-.3 1.5 1 2.5.3a2.18 2.18 0 00-1.6-2.5c.7-.6 1.2.9 2.2.6.2-.1.3-.3.5-.4-.2-1-.5-1.9-1.4-2 .7-.3 1.7.6 2.6.7 1.5-.9-.3-2.5-1.7-2.1 1.1-.7 3.4.4 3.7-1-.3-1.1-2.1-.9-3.2-.5 0-.3.5-.1.5-.4 1.3-.2 2.4-1.2 3.8-.9-.1 1.3-.4 2.3-1.6 2.7 1 1.8-1.6 2-1.5 3.6-.6 0-.8.5-1.5.5.2.6.6.9.6 1.7-.2.4-.7.5-1.5.5-.3.4 1 .6.5 1.3s-1.5.6-2.1.9a1 1 0 01-.8 1.3 12.88 12.88 0 012.6 8.5c-.1 1-.8 2-1 3.1s-.2 2.6-.5 3.9c-.4 2.3-.8 4.8-1.3 7.2-.2 1.1-.3 2.5-1.2 3.1a4.67 4.67 0 01-1.5-3.3c-1.1.9-1.4 2.8-2.9 3.3a2.62 2.62 0 01-.4-2.1c-.6-.4-1.1 1.3-1.7.8-.5-1.1-.2-2.5.1-3.9-.5-.3-.7.9-1.7.6-.5-1.5.5-3 .6-4.5-.4-.3-.6.7-1.3.6-1.3-4.8 4-7.6 4.1-13a29.89 29.89 0 01-1.3-5.7zm-14.2-4.8c-.2-2-2.5-1.1-1.9.2.1.8 1.4.9 1.9-.2zm21.9 18.8c-.1-.1-.2-.2-.4-.1-.6 1.7-1 3.5-1.7 5.3-.6 1.6-2.1 3.4-.6 5.2 1.2-1.1 1.5-3 1.8-4.7a17.91 17.91 0 00.9-5.7z"/><path class="cls-2" d="M379.6 7.64a3 3 0 01-1 2.6c0-.2 0-.5-.1-.6-5.3.6-6.8 4.5-10.1 6.8a44.1 44.1 0 017.2-7.1c1.3-.7 2.4-1.8 4-1.7z"/></svg>