<svg viewBox="0 0 2466 611" width="2466" height="611" xmlns="http://www.w3.org/2000/svg" fill-rule="evenodd" clip-rule="evenodd" stroke-linejoin="round" stroke-miterlimit="2"><path d="M374.534 279.523h-97.18c-5.32 0-9.929-4.262-9.929-9.929V36.564c0-5.666 3.9-10.274 9.93-10.274h18.795c6.03 0 10.638 3.9 10.638 10.275v196.5c0 6.02 3.546 10.283 9.575 10.283h58.17c6.742 0 9.93 3.546 9.93 10.288v15.958c0 5.667-4.254 9.93-9.93 9.93zM521.017 258.953c-12.417 16.316-31.212 24.47-54.98 24.47-23.757 0-43.974-8.866-54.616-24.47-10.642-14.896-14.542-31.213-14.542-59.938v-91.867c0-28.725 4.255-46.462 14.542-60.291 11.7-15.959 30.146-24.121 54.617-24.121 23.767 0 43.983 8.516 54.98 24.12 10.287 14.896 14.54 31.567 14.54 60.292v91.867c0 28.725-4.253 46.108-14.54 59.938zm-25.18-151.092c0-36.18-7.807-48.596-29.8-48.596-22.337 0-29.79 12.417-29.79 48.596v90.8c0 35.82 7.095 48.229 29.79 48.229 21.993 0 29.8-12.408 29.8-48.23v-90.8zM652.246 269.594c-1.42 6.384-5.32 9.93-12.062 9.93H612.17c-6.741 0-10.996-3.546-12.416-10.288L549.746 36.565c-1.062-5.667 1.413-10.275 7.446-10.275h20.213c6.033 0 11.354 3.896 12.775 10.275l34.045 172.73c.709 3.195 2.842 2.84 3.55-.347l30.146-172.383c1.067-5.667 6.034-10.275 11.709-10.275h19.504c6.387 0 9.575 4.254 8.508 10.275l-45.396 233.03zM830.65 269.594c0 5.667-4.608 9.93-10.287 9.93h-94.342c-5.32 0-10.287-4.263-10.287-9.93V36.564c0-4.6 5.675-10.274 10.287-10.274h94.342c6.742 0 9.933 3.541 9.933 10.275v15.97c0 6.022-3.191 9.93-9.575 9.93h-55.683c-7.096 0-10.283 4.962-10.283 11.704v44.688c0 6.029 4.608 9.929 10.283 9.929h47.175c6.375 0 9.93 4.254 9.93 10.287v15.959c0 5.32-4.613 9.929-9.93 9.929h-47.53c-5.674 0-9.574 4.966-9.574 10.641v57.459c0 6.033 3.187 10.287 9.575 10.287h55.68c5.32 0 10.287 5.321 10.287 10.638v15.608zM1344.184 283.423c-64.2 0-75.541-55.325-75.541-64.2 0-4.962 3.896-8.508 9.216-9.929l14.188-4.254c2.833-.713 5.32-1.42 7.096-1.42 3.9 0 6.375 2.128 7.796 8.162 6.033 23.058 19.162 35.108 37.245 35.108 17.025 0 28.721-11.704 28.721-28.733 0-15.95-7.796-26.238-37.233-49.65l-25.533-20.213c-20.58-16.317-35.475-35.825-35.475-63.492 0-36.887 27.666-62.066 66.329-62.066 52.496 0 68.812 49.304 68.812 56.746 0 4.612-3.2 7.808-7.808 9.229l-17.738 5.32c-1.412.346-3.187.7-4.254.7-4.254 0-6.741-2.474-8.508-7.795-6.388-18.45-16.675-27.667-30.858-27.667-14.192 0-25.18 10.638-25.18 25.533 0 13.838 7.442 25.192 26.246 40.075l17.371 13.842c28.38 22.338 54.625 40.075 54.625 80.504 0 38.309-28.02 64.2-69.517 64.2zM1515.847 170.99c-2.483 6.742-3.542 12.417-3.542 20.217v78.029c0 5.317-4.975 10.292-10.295 10.292h-18.792c-5.68 0-10.288-4.263-10.288-9.938v-78.383c0-7.8-.708-13.121-3.541-20.217l-49.663-134.067c-2.12-5.675 0-10.637 6.388-10.637h23.412c6.021 0 10.996 3.895 12.763 9.929l27.67 87.246c2.13 6.387 4.609 6.387 6.73-.354l28.379-86.892c2.133-6.38 6.387-9.93 13.13-9.93h22.337c6.741 0 8.875 3.896 6.387 10.284l-51.075 134.42zM1647.435 279.523h-52.496c-5.675 0-9.217-4.616-9.217-10.283V36.565c0-4.609 4.254-10.275 9.217-10.275h52.496c49.658 0 73.416 25.537 73.416 79.083v94.7c0 54.271-23.758 79.45-73.416 79.45zm34.041-163.154c0-40.075-9.92-53.904-37.233-53.904h-9.93c-5.674 0-9.583 3.9-9.583 9.575v163.146c0 4.608 4.263 8.162 8.517 8.162h10.996c27.313 0 37.233-14.191 37.233-53.558v-73.42zM1882.939 279.523h-19.15c-7.096 0-11.704-4.262-14.192-10.283l-54.97-131.942c-2.134-4.966-4.255-4.612-4.255 0V269.24c0 6.02-4.254 10.283-10.287 10.283h-19.15c-5.675 0-9.938-3.895-9.938-9.929V36.564c0-6.02 3.554-10.274 9.938-10.274h19.15c6.387 0 11.708 4.254 14.187 9.92l55.325 132.297c2.13 4.966 4.263 4.612 4.263 0V36.565c0-5.667 4.254-10.275 9.929-10.275h19.15c6.033 0 10.288 3.541 10.288 9.92v233.384c0 4.959-4.967 9.93-10.288 9.93zM2041.84 269.594c0 5.667-4.61 9.93-10.288 9.93h-94.342c-5.321 0-10.288-4.263-10.288-9.93V36.564c0-4.6 5.675-10.274 10.288-10.274h94.342c6.741 0 9.933 3.541 9.933 10.275v15.97c0 6.022-3.192 9.93-9.575 9.93h-55.692c-7.087 0-10.287 4.962-10.287 11.704v44.688c0 6.029 4.62 9.929 10.287 9.929h47.171c6.388 0 9.933 4.254 9.933 10.287v15.959c0 5.32-4.612 9.929-9.933 9.929h-47.517c-5.675 0-9.583 4.966-9.583 10.641v57.459c0 6.033 3.196 10.287 9.583 10.287h55.68c5.32 0 10.287 5.321 10.287 10.638v15.608zM2145.756 170.99c-2.48 6.742-3.546 12.417-3.546 20.217v78.029c0 5.317-4.967 10.292-10.287 10.292h-18.8c-5.675 0-10.288-4.263-10.288-9.938v-78.383c0-7.8-.708-13.121-3.542-20.217l-49.662-134.067c-2.121-5.675 0-10.637 6.387-10.637h23.413c6.02 0 10.996 3.895 12.775 9.929l27.658 87.246c2.13 6.387 4.609 6.387 6.742-.354l28.367-86.892c2.133-6.38 6.387-9.93 13.129-9.93h22.337c6.742 0 8.875 3.896 6.388 10.284l-51.071 134.42z" fill="#fff" fill-rule="nonzero"/><path d="M1223.93 58.819c-30.679-86.554-138.27-68.908-173.217-3.133-34.95-65.775-142.541-83.421-173.22 3.133-39.259 110.754 158.187 235.48 173.22 244.438 15.038-8.959 212.484-133.684 173.217-244.438z" fill="#f05b7a" fill-rule="nonzero"/><path d="M369.825 605.853h-19.15c-7.096 0-11.708-4.254-14.191-10.284l-54.971-131.933c-2.134-4.975-4.259-4.62-4.259 0v131.933c0 6.03-4.254 10.284-10.283 10.284h-19.158c-5.667 0-9.93-3.896-9.93-9.93V362.908c0-6.034 3.55-10.288 9.93-10.288h19.158c6.388 0 11.708 4.254 14.183 9.934l55.33 132.296c2.129 4.962 4.262 4.608 4.262 0V362.907c0-5.675 4.254-10.288 9.93-10.288h19.15c6.028 0 10.283 3.546 10.283 9.934v233.37c0 4.967-4.963 9.93-10.284 9.93zM528.721 595.924c0 5.675-4.608 9.929-10.283 9.929h-94.346c-5.32 0-10.288-4.254-10.288-9.93v-233.02c0-4.609 5.68-10.284 10.288-10.284h94.346c6.742 0 9.93 3.542 9.93 10.284v15.962c0 6.03-3.188 9.93-9.576 9.93h-55.68c-7.1 0-10.287 4.966-10.287 11.708v44.683c0 6.03 4.609 9.93 10.288 9.93h47.17c6.38 0 9.93 4.253 9.93 10.295v15.95c0 5.33-4.617 9.93-9.93 9.93h-47.528c-5.675 0-9.584 4.966-9.584 10.64v57.46c0 6.04 3.2 10.287 9.584 10.287h55.683c5.32 0 10.283 5.316 10.283 10.637v15.609zM728.138 595.924c-.708 5.32-5.675 9.929-11.35 9.929h-16.67c-5.322 0-10.642-3.9-12.055-9.93l-29.087-148.962c-.713-5.32-2.834-5.32-3.9 0l-26.6 148.963c-1.067 6.383-6.034 9.929-12.417 9.929h-15.954c-6.03 0-10.284-3.9-11.705-9.93L544.06 362.549c-.7-4.608 2.487-9.929 7.808-9.929h18.083c6.388 0 10.996 4.254 12.063 10.284l25.537 143.291c1.063 4.259 2.834 4.259 3.542-.354l26.604-142.937c1.063-4.963 6.738-10.284 11.705-10.284h14.541c5.321 0 10.996 5.321 12.059 10.284l28.737 142.937c1.054 4.254 3.542 4.254 3.896 0l22.337-142.937c1.067-6.03 6.388-10.284 12.421-10.284h15.604c6.742 0 9.575 4.609 8.509 10.642l-39.367 232.663zM900.776 609.757c-64.2 0-75.55-55.325-75.55-64.196 0-4.967 3.908-8.512 9.229-9.933l14.183-4.254c2.834-.7 5.321-1.421 7.096-1.421 3.9 0 6.38 2.129 7.8 8.162 6.03 23.05 19.15 35.109 37.242 35.109 17.029 0 28.725-11.705 28.725-28.721 0-15.963-7.8-26.25-37.234-49.663l-25.537-20.212c-20.58-16.317-35.475-35.825-35.475-63.488 0-36.887 27.67-62.058 66.333-62.058 52.484 0 68.8 49.296 68.8 56.746 0 4.6-3.187 7.8-7.8 9.22l-17.737 5.317c-1.421.346-3.188.7-4.254.7-4.255 0-6.742-2.475-8.509-7.796-6.387-18.437-16.67-27.666-30.854-27.666-14.196 0-25.183 10.641-25.183 25.537 0 13.825 7.446 25.18 26.237 40.083l17.384 13.83c28.379 22.346 54.625 40.075 54.625 80.508 0 38.304-28.025 64.196-69.521 64.196zM1112.163 585.286c-12.416 16.317-31.212 24.471-54.97 24.471-23.767 0-43.984-8.867-54.626-24.47-10.637-14.897-14.537-31.213-14.537-59.947v-91.858c0-28.721 4.254-46.459 14.537-60.288 11.709-15.97 30.146-24.116 54.626-24.116 23.758 0 43.975 8.5 54.97 24.116 10.288 14.896 14.542 31.567 14.542 60.288v91.858c0 28.734-4.254 46.109-14.542 59.946zm-25.179-151.092c0-36.175-7.808-48.591-29.791-48.591-22.346 0-29.8 12.416-29.8 48.591v90.792c0 35.82 7.1 48.238 29.8 48.238 21.983 0 29.791-12.417 29.791-48.238v-90.792zM1274.251 587.415c-11.704 14.896-29.433 22.704-52.138 22.338-22.7-.354-41.85-7.796-52.491-22.338-10.996-15.258-14.538-30.854-14.538-62.779v-161.73c0-5.32 4.254-10.283 9.93-10.283h18.791c6.388 0 10.288 3.896 10.288 10.284v167.762c0 30.146 8.162 42.555 28.02 42.555 19.863 0 27.671-12.063 27.671-42.555V362.907c0-6.03 4.255-10.284 10.284-10.284h18.437c6.034 0 10.288 4.963 10.288 10.638v161.02c0 32.634-3.546 49.297-14.542 63.134zM1434.439 391.99h-28.725c-5.675 0-10.296 4.608-10.296 10.283V595.92c0 5.33-4.954 9.938-10.275 9.938h-19.159c-5.32 0-9.929-4.608-9.929-9.938v-194c0-4.966-6.033-9.929-10.287-9.929h-28.725c-5.321 0-9.938-4.967-9.938-10.287v-19.15c0-5.33 4.975-9.93 9.938-9.93h117.396c5.675 0 9.929 4.246 9.929 9.93v19.508c0 5.675-4.254 9.93-9.93 9.93zM1588.239 605.853h-19.15c-4.613 0-9.934-4.963-9.934-9.93v-90.8c0-4.958-4.616-10.633-10.283-10.633h-35.475c-5.667 0-9.93 5.675-9.93 10.996v90.438c0 4.612-5.674 9.929-10.287 9.929h-18.791c-4.613 0-9.934-4.963-9.934-9.93V362.908c0-5.321 4.613-10.288 9.934-10.288h18.791c4.613 0 10.288 5.321 10.288 10.288v84.758c0 4.975 4.962 10.288 9.929 10.288h35.475c4.254 0 10.283-6.025 10.283-10.288v-84.758c0-4.967 5.321-10.288 9.934-10.288h19.504c4.254 0 9.93 5.321 9.93 9.934v233.37c0 4.263-6.03 9.93-10.284 9.93zM1852.376 595.924c-.712 5.32-5.679 9.929-11.354 9.929h-16.67c-5.321 0-10.642-3.9-12.055-9.93l-29.087-148.962c-.713-5.32-2.834-5.32-3.9 0l-26.6 148.963c-1.067 6.383-6.034 9.929-12.417 9.929h-15.954c-6.03 0-10.283-3.9-11.704-9.93l-44.342-233.375c-.7-4.608 2.488-9.929 7.808-9.929h18.084c6.387 0 10.996 4.254 12.062 10.284l25.538 143.291c1.062 4.259 2.841 4.259 3.55-.354l26.596-142.937c1.062-4.963 6.737-10.284 11.704-10.284h14.541c5.321 0 10.996 5.321 12.063 10.284l28.72 142.937c1.067 4.254 3.555 4.254 3.91 0l22.337-142.937c1.066-6.03 6.387-10.284 12.42-10.284h15.605c6.741 0 9.575 4.609 8.508 10.642l-39.363 232.663zM2035.04 605.853h-18.805c-7.088 0-10.988-4.254-12.054-10.284l-7.096-34.4c-1.413-6.387-6.03-10.641-12.408-10.641h-33.7c-5.675 0-10.996 6.033-11.705 10.641l-6.733 34.755c-1.42 6.033-6.03 9.929-12.062 9.929h-18.446c-6.034 0-8.867-4.963-7.8-10.284l45.041-233.375c1.067-6.383 4.967-9.575 11.705-9.575h33.7c7.087 0 10.995 3.546 12.408 10.288l46.817 232.662c1.066 6.388-2.834 10.284-8.863 10.284zm-65.268-193.65c-.7-2.48-3.541-3.192-3.9.354l-16.662 92.929c-1.42 6.025 3.192 9.22 8.867 9.22h20.212c6.388 0 9.575-3.195 8.513-9.937l-17.03-92.566zM2168.748 605.853h-97.18c-5.316 0-9.929-4.254-9.929-9.93V362.908c0-5.675 3.892-10.288 9.93-10.288h18.795c6.03 0 10.642 3.9 10.642 10.288v196.487c0 6.03 3.542 10.284 9.575 10.284h58.167c6.741 0 9.929 3.546 9.929 10.287v15.959c0 5.675-4.254 9.929-9.93 9.929zM2309.552 595.924c0 5.675-4.608 9.929-10.288 9.929h-94.341c-5.321 0-10.288-4.254-10.288-9.93v-233.02c0-4.609 5.675-10.284 10.288-10.284h94.341c6.742 0 9.934 3.542 9.934 10.284v15.962c0 6.03-3.192 9.93-9.575 9.93h-55.692c-7.088 0-10.275 4.966-10.275 11.708v44.683c0 6.03 4.6 9.93 10.275 9.93h47.183c6.375 0 9.93 4.253 9.93 10.295v15.95c0 5.33-4.613 9.93-9.93 9.93h-47.529c-5.675 0-9.575 4.966-9.575 10.64v57.46c0 6.04 3.188 10.287 9.575 10.287h55.68c5.32 0 10.287 5.316 10.287 10.637v15.609zM2395.735 609.757c-64.187 0-75.541-55.325-75.541-64.196 0-4.967 3.9-8.512 9.22-9.933l14.184-4.254c2.833-.7 5.32-1.421 7.1-1.421 3.896 0 6.375 2.129 7.796 8.162 6.033 23.05 19.158 35.109 37.241 35.109 17.03 0 28.725-11.705 28.725-28.721 0-15.963-7.796-26.25-37.241-49.663l-25.525-20.212c-20.584-16.317-35.475-35.825-35.475-63.488 0-36.887 27.666-62.058 66.32-62.058 52.5 0 68.809 49.296 68.809 56.746 0 4.6-3.188 7.8-7.8 9.22l-17.738 5.317c-1.408.346-3.187.7-4.254.7-4.254 0-6.742-2.475-8.508-7.796-6.384-18.437-16.671-27.666-30.854-27.666-14.196 0-25.184 10.641-25.184 25.537 0 13.825 7.446 25.18 26.238 40.083l17.383 13.83c28.38 22.346 54.625 40.075 54.625 80.508 0 38.304-28.02 64.196-69.52 64.196zM160.83 489.578c3.97 1.45 5.783 4.704 4.337 8.675-5.059 17.708-12.292 37.591-22.767 55.654l20.233 27.83c2.534 3.253 2.167 6.87-1.083 9.757l-17.712 14.459c-3.609 2.887-6.859 2.166-9.392-1.45l-14.458-20.234c-15.542 15.9-34.338 26.384-57.1 26.384C23.858 610.653 0 583.907 0 547.765c0-32.166 19.875-54.212 41.204-73L29.28 457.778c-10.487-14.459-18.075-32.525-18.075-48.796 0-33.25 23.496-59.271 58.917-59.271 36.858 0 58.904 28.196 58.904 58.554 0 29.996-19.88 51.313-41.558 70.475l32.887 44.813c5.054-10.488 9.754-22.767 13.73-36.504 1.445-4.338 4.7-5.788 8.67-4.338l18.075 6.867zm-61.084 66.496l-38.663-53.85c-13.741 13.375-24.216 27.466-24.216 44.095 0 15.542 11.204 27.83 27.466 27.83 12.646 0 24.571-6.505 35.413-18.075zM67.95 451.99c14.813-13.375 26.02-26.737 26.02-43.008 0-13.363-9.403-24.934-23.85-24.934-14.103 0-23.495 9.759-23.495 24.217 0 9.033 4.338 19.875 14.458 33.967l6.867 9.758z" fill="#fff" fill-rule="nonzero"/></svg>