<svg id="Layer_1" data-name="Layer 1" xmlns="http://www.w3.org/2000/svg" viewBox="0 0 293.04 99.21" width="293.04" height="99.21"><defs><style>.cls-1{fill:#fff}</style></defs><path class="cls-1" d="M135.9 56.68c-5.16 0-9.09-1.1-12.43-4.5l4.3-4.31c2.16 2.15 5.08 2.87 8.19 2.87 4 0 6.09-1.53 6.09-4.26a3.86 3.86 0 00-1.05-2.83 4.91 4.91 0 00-3.07-1.15l-4.07-.62a11.29 11.29 0 01-6.61-2.83 8.93 8.93 0 01-2.45-6.7c0-6.08 4.5-10.34 11.88-10.34 4.7 0 8.09 1.15 11 4l-4.22 4.17c-2.1-2.07-4.73-2.35-7-2.35-3.54 0-5.22 2-5.22 4.31a3.2 3.2 0 001 2.45 5.62 5.62 0 003.11 1.29l4.07.62c3.11.43 5 1.24 6.52 2.68 1.81 1.68 2.63 4.12 2.63 7.18-.01 6.58-5.47 10.32-12.67 10.32zM166.59 42.41v14H160v-14L149.74 22.3H157l6.33 13.7 6.28-13.74h7.23zM202.69 51.4c-2.42 3.41-5.64 5-10.28 5H180.1V22.3h12.31c4.64 0 7.86 1.57 10.28 5 2.12 2.92 2.17 6.41 2.17 12.06s-.05 9.13-2.17 12.04zm-5.87-21.06a6 6 0 00-5-2.11h-5.07v22.22h5.07a6 6 0 005-2.11c1.24-1.48 1.39-3.63 1.39-9s-.15-7.52-1.39-9zM230.19 56.39l-13.5-20.93v20.93H210V22.3h6l13.5 20.87V22.3h6.66v34.09zM282.79 42.41v14h-6.62v-14L265.94 22.3h7.22l6.37 13.7 6.27-13.7h7.2zM241.67 22.3v34.09h22.47v-5.94h-15.81v-8.28h13.45v-5.94h-13.45v-8h15.81v-.05l-3-5.88h-19.47zM254.44 77.06l-6.67-10.33v10.33h-3.28V60.23h2.93l6.67 10.31V60.23h3.28v16.83zM265.48 77.21a7.89 7.89 0 01-6.14-2.21l2.13-2.13a5.45 5.45 0 004 1.42c2 0 3-.75 3-2.1a1.89 1.89 0 00-.52-1.4 2.45 2.45 0 00-1.51-.56l-2-.31a5.54 5.54 0 01-3.27-1.4 4.41 4.41 0 01-1.2-3.3c0-3 2.22-5.11 5.86-5.11a7.19 7.19 0 015.44 2l-2.08 2a4.67 4.67 0 00-3.42-1.11c-1.75 0-2.58 1-2.58 2.13a1.58 1.58 0 00.47 1.2 2.75 2.75 0 001.54.64l2 .31a5.34 5.34 0 013.22 1.32 4.64 4.64 0 011.3 3.55c.01 3.21-2.72 5.06-6.24 5.06zM288.51 77.06h-2.73l-3.1-10.21-3.1 10.21h-2.75l-4.49-16.83h3.43l2.6 10.61 3.08-10.61h2.46L287 70.84l2.62-10.61H293zM135.38 74.6a5.75 5.75 0 01-5.1 2.47h-6.09V60.18h6.09a5.73 5.73 0 015.1 2.47c1 1.45 1.07 3.17 1.07 6s-.03 4.51-1.07 5.95zm-2.91-10.44a3 3 0 00-2.47-1h-2.52v11H130a3 3 0 002.47-1c.61-.73.68-1.8.68-4.46s-.07-3.8-.68-4.54zM141.13 71.85a2.52 2.52 0 002.7 2.75 3.49 3.49 0 002.8-1.16l1.87 1.82a5.81 5.81 0 01-4.7 1.95c-2.91 0-5.71-1.33-5.71-6.34 0-4 2.18-6.3 5.38-6.3 3.44 0 5.39 2.47 5.39 6v1.31zm4.41-3.44a2.31 2.31 0 00-4.13 0 3 3 0 00-.28 1.33h4.69a3 3 0 00-.28-1.33zM155.1 77.21c-1.95 0-3.68-.21-5.27-1.78l2-2a4.45 4.45 0 003.3 1.17c1.06 0 2.18-.36 2.18-1.28 0-.62-.31-1-1.31-1.14l-2-.18c-2.18-.22-3.56-1.19-3.56-3.47 0-2.58 2.26-3.93 4.77-3.93A6.65 6.65 0 01160 66l-1.9 1.92a4.25 4.25 0 00-2.87-.82c-1.23 0-1.76.56-1.76 1.18s.36 1 1.29 1.07l1.94.19c2.44.24 3.68 1.52 3.68 3.63-.04 2.73-2.38 4.04-5.28 4.04zM166.13 77.07a3.35 3.35 0 01-3.58-3.53v-6.13h-1.31v-2.34h1.31v-3.66h3.08v3.66h2.18v2.34h-2.18v5.93c0 .71.33 1.12 1.06 1.12h1.12v2.61zM169.9 62.6v-2.51h3.15v2.51zm0 14.47v-12h3.1v12zM182.58 77.07v-7.48a2.06 2.06 0 10-4.11 0v7.48h-3.08V64.71h3v1.14a4.26 4.26 0 013.09-1.28 4 4 0 012.91 1.09 4.56 4.56 0 011.26 3.51v7.9zM194.65 77.07V76a3.75 3.75 0 01-3 1.18 4.26 4.26 0 01-3.15-1.09 3.91 3.91 0 01-1-2.77c0-2 1.35-3.58 4.27-3.58h2.87v-.62c0-1.35-.66-1.94-2.3-1.94a2.74 2.74 0 00-2.38 1.06L188 66.32a5.2 5.2 0 014.44-1.75c3.48 0 5.26 1.47 5.26 4.36v8.14zm-.07-5.22h-2.35c-1.23 0-1.83.5-1.83 1.42s.6 1.4 1.88 1.4a2.32 2.32 0 001.82-.59 1.9 1.9 0 00.48-1.57zM204.19 77.07a3.35 3.35 0 01-3.59-3.53v-6.13h-1.3v-2.34h1.3v-3.66h3.09v3.66h2.18v2.34h-2.18v5.93c0 .71.33 1.12 1.06 1.12h1.12v2.61zM208 62.6v-2.51h3.16v2.51zm0 14.47v-12h3.08v12zM222.1 75.59a5.15 5.15 0 01-3.84 1.52 5.08 5.08 0 01-3.82-1.52c-1.11-1.18-1.4-2.58-1.4-4.81s.29-3.61 1.4-4.79a5.59 5.59 0 017.66 0c1.11 1.18 1.4 2.56 1.4 4.79s-.26 3.65-1.4 4.81zm-2.4-7.8a1.92 1.92 0 00-1.44-.55 1.94 1.94 0 00-1.43.55c-.63.62-.71 1.73-.71 3s.08 2.4.71 3a1.94 1.94 0 001.43.54 1.92 1.92 0 001.44-.54c.64-.61.72-1.73.72-3s-.08-2.38-.72-3zM232.54 77v-7.5a2.06 2.06 0 10-4.1 0V77h-3.08V64.61h3v1.14a4.24 4.24 0 013.08-1.28 4 4 0 012.92 1.09 4.61 4.61 0 011.26 3.51V77zM30.27 53.6c3.18-17.53 12.17-37.92 24.62-48.74H5.51C17.94 13.7 28.5 31.72 30.27 53.6zM83.62 19.77A153.11 153.11 0 0192.57 35a107.44 107.44 0 017 17.59S115.6 14.84 126.87 0C95.64 9.11 83.62 19.77 83.62 19.77zM76.94 25.62C59.33 41.74 46.74 58.7 39.06 73.09A230 230 0 0173.08 93c-.64-5.82-4.86-41.53 3.86-67.38z"/><path class="cls-1" d="M0 4.86v54.69a173.51 173.51 0 0127.69 8.58c1-27.21-8-51.08-27.69-63.27zM33.27 54.06c4.82-10.43 19.57-32.22 36.67-43.33A44 44 0 0060 4.86c-20.62 14.68-26.73 49.2-26.73 49.2z"/><path class="cls-1" d="M30.54 69.3c.32.13 4.17 1.79 5.75 2.51 2.77-5.89 16.59-29.56 42.78-52a58.92 58.92 0 00-6.68-7C40.4 34.69 30.54 69.3 30.54 69.3zM80.1 16.38s-.03-.04 0 0zM80.1 16.37s.01.02 0 0zM74.88 11.06c.68.66 3.69 3.56 5.22 5.32a52.2 52.2 0 015.48-10.67 61.94 61.94 0 00-10.7 5.35zM81 21.76S70.23 50.45 76.44 95c2.43 1.82 5.45 4.22 5.45 4.22s9.55-27.57 15.67-41.64C95.86 50.62 92.1 38.34 81 21.76z"/></svg>