<svg data-name="Layer 1" xmlns="http://www.w3.org/2000/svg" viewBox="0 0 20 14.57" width="20" heigh="14.57"><path d="M3.29 5.16c.42-.88.81-1.82 1.3-2.83a1.61 1.61 0 011.14-1h8.53c.57.06.88.5 1.17 1 .49 1 .88 2 1.29 2.83zM5.73 0C4.82 0 4.25.34 3.5 1.4L2.23 4.25H.29c-.29 0-.83 1.58 1.19 1.63L.81 7.54v6.25a.77.77 0 00.78.78h2.64a.77.77 0 00.77-.78v-1.74h10v1.74a.78.78 0 00.77.78h2.65a.77.77 0 00.78-.78V7.54l-.7-1.66c2 0 1.48-1.63 1.19-1.63h-1.93L16.52 1.4C15.74.34 15.19 0 14.26 0zm10.6 7.67a1.27 1.27 0 101.27 1.27 1.27 1.27 0 00-1.27-1.27zm-12.67 0a1.27 1.27 0 11-1.27 1.27 1.27 1.27 0 011.27-1.27z" fill="#009fb5" fill-rule="evenodd"/></svg>